<?xml version="1.0" standalone="no"?>
<!DOCTYPE svg PUBLIC "-//W3C//DTD SVG 20010904//EN"
 "http://www.w3.org/TR/2001/REC-SVG-20010904/DTD/svg10.dtd">
<svg version="1.0" xmlns="http://www.w3.org/2000/svg"
 width="1242.000000pt" height="297.000000pt" viewBox="0 0 1242.000000 297.000000"
 preserveAspectRatio="xMidYMid meet">

<g transform="translate(0.000000,297.000000) scale(0.100000,-0.100000)"
fill="#000000" stroke="none">
<path d="M1470 2950 c-310 -20 -614 -97 -855 -217 -350 -174 -545 -391 -591
-657 -14 -79 -12 -134 7 -231 75 -367 556 -698 1164 -799 703 -117 1443 56
1816 424 97 97 166 191 196 268 19 51 15 57 -57 66 -30 4 -69 20 -106 44 -78
51 -113 97 -147 195 -6 16 -10 16 -44 -7 -52 -34 -122 -50 -196 -44 -182 15
-318 189 -287 366 5 31 11 66 12 76 2 14 -7 22 -39 33 -59 20 -137 93 -169
158 -34 70 -42 162 -20 225 8 24 14 46 12 47 -11 11 -223 43 -341 52 -151 12
-180 12 -355 1z"/>
<path d="M3032 2837 c-6 -7 -16 -25 -21 -40 -15 -39 0 -63 46 -70 76 -13 111
49 56 98 -31 27 -65 32 -81 12z"/>
<path d="M2621 2778 c-14 -7 -31 -31 -39 -55 -14 -38 -14 -43 4 -70 10 -15 24
-40 31 -55 9 -20 19 -28 38 -28 18 0 29 8 38 28 6 15 20 33 29 40 10 7 23 31
29 53 12 37 11 42 -12 64 -30 29 -85 40 -118 23z"/>
<path d="M3044 2449 c-10 -12 -36 -32 -56 -45 -31 -20 -38 -30 -38 -57 0 -46
23 -74 67 -81 21 -4 57 -14 81 -23 40 -15 46 -15 77 0 l34 16 -1 75 c-1 42 -4
76 -8 76 -4 0 -24 14 -45 30 -44 35 -84 38 -111 9z"/>
<path d="M5414 2286 c-17 -8 -45 -31 -62 -52 -28 -33 -32 -46 -32 -95 0 -70
27 -115 90 -147 87 -45 193 -13 237 71 39 76 4 185 -70 220 -42 20 -120 21
-163 3z"/>
<path d="M9934 2286 c-67 -30 -105 -116 -85 -193 39 -144 261 -164 325 -29 54
115 -25 236 -154 236 -30 -1 -69 -7 -86 -14z"/>
<path d="M3950 1489 l0 -701 428 4 c474 5 489 7 609 74 68 38 111 86 145 160
30 68 32 215 3 293 -22 61 -87 139 -143 172 -20 12 -39 24 -41 26 -2 1 17 21
42 43 26 23 58 65 74 98 25 51 28 67 28 157 -1 83 -5 109 -24 152 -27 62 -98
131 -171 168 -95 48 -166 55 -576 55 l-374 0 0 -701z m754 421 c64 -32 89 -76
83 -143 -5 -58 -29 -93 -83 -121 -35 -19 -60 -21 -241 -24 l-203 -4 0 154 c0
85 3 157 6 161 3 3 92 5 197 4 183 -2 194 -3 241 -27z m51 -552 c69 -38 100
-99 89 -176 -8 -51 -40 -93 -91 -118 -33 -16 -69 -19 -265 -22 l-228 -4 0 172
0 172 233 -4 c193 -2 237 -6 262 -20z"/>
<path d="M7662 2178 c5 -13 110 -355 194 -633 25 -82 86 -279 135 -436 49
-158 89 -294 89 -303 0 -14 21 -16 170 -16 125 0 170 3 170 12 0 6 22 84 50
172 27 89 88 289 135 446 47 157 88 292 91 300 5 13 36 -81 105 -315 37 -123
106 -346 150 -483 l43 -132 161 0 161 0 53 173 c28 94 95 314 148 487 53 173
104 342 114 375 16 57 93 310 105 348 5 16 -7 17 -148 17 l-153 0 -29 -98
c-32 -110 -244 -824 -255 -861 -6 -20 -11 -9 -30 60 -13 46 -54 183 -91 304
-38 121 -83 267 -100 325 -17 58 -43 142 -57 188 l-26 82 -146 0 -147 0 -12
-47 c-15 -57 -22 -81 -148 -498 -53 -176 -102 -342 -109 -369 -8 -26 -16 -50
-18 -52 -2 -3 -19 46 -36 108 -18 62 -36 124 -41 138 -5 14 -20 63 -33 110
-28 93 -100 334 -151 500 l-32 105 -158 3 c-125 2 -157 0 -154 -10z"/>
<path d="M5930 1980 l0 -130 -75 0 -75 0 0 -120 0 -120 75 0 75 0 0 -257 c1
-178 5 -278 14 -321 26 -120 102 -205 213 -237 82 -24 259 -17 325 12 l47 21
-14 49 c-27 96 -48 168 -51 172 -2 2 -24 -4 -50 -13 -92 -31 -151 -14 -178 54
-13 33 -16 82 -16 280 l0 240 125 0 125 0 0 120 0 120 -125 0 -125 0 0 130 0
130 -145 0 -145 0 0 -130z"/>
<path d="M7032 1859 c-212 -32 -385 -190 -433 -394 -17 -75 -14 -232 6 -301
70 -242 273 -385 550 -387 163 -1 303 47 394 138 l34 33 -79 90 -78 90 -36
-27 c-63 -50 -119 -72 -195 -78 -152 -12 -268 62 -309 195 l-7 22 385 0 386 0
0 74 c0 162 -53 307 -146 400 -116 116 -296 171 -472 145z m188 -250 c70 -32
110 -79 134 -156 l7 -23 -240 0 c-133 0 -241 2 -241 5 0 3 7 21 14 40 55 131
201 191 326 134z"/>
<path d="M10755 1864 c-152 -20 -232 -52 -304 -119 -69 -65 -94 -121 -94 -215
-1 -178 90 -251 392 -314 141 -30 185 -46 200 -74 34 -63 -12 -116 -108 -127
-108 -12 -231 16 -349 82 -35 19 -65 33 -66 31 -2 -1 -26 -51 -54 -110 l-51
-108 28 -19 c152 -109 491 -150 669 -83 118 45 203 140 223 248 27 144 -27
252 -156 317 -27 14 -124 41 -215 62 -202 45 -225 56 -225 110 0 35 4 42 40
62 33 19 55 23 126 23 91 0 156 -15 252 -57 31 -14 59 -24 60 -22 8 10 87 202
87 210 0 16 -98 57 -186 78 -80 20 -215 32 -269 25z"/>
<path d="M11815 1864 c-217 -30 -386 -164 -446 -353 -83 -261 24 -550 247
-668 84 -45 169 -63 299 -63 170 0 279 38 382 133 l43 39 -77 87 c-43 47 -78
88 -79 89 -2 2 -27 -14 -56 -37 -126 -95 -308 -92 -412 7 -36 35 -75 102 -76
130 0 9 82 12 380 12 l379 0 7 36 c9 47 -10 175 -36 255 -52 154 -189 281
-340 317 -54 13 -174 22 -215 16z m148 -250 c54 -18 99 -59 127 -115 37 -72
47 -69 -216 -69 l-236 0 7 28 c32 129 182 202 318 156z"/>
<path d="M5340 1320 l0 -530 150 0 150 0 0 530 0 530 -150 0 -150 0 0 -530z"/>
<path d="M9870 1320 l0 -531 148 3 147 3 0 525 0 525 -147 3 -148 3 0 -531z"/>
<path d="M17 1231 c2 -180 8 -353 14 -386 53 -294 364 -566 818 -715 218 -72
435 -107 711 -117 585 -20 1162 160 1461 457 107 106 161 189 211 325 20 57
22 79 25 415 l4 355 -30 -53 c-152 -270 -487 -485 -931 -597 -216 -55 -414
-77 -670 -77 -728 1 -1371 272 -1588 671 l-27 48 2 -326z"/>
</g>
</svg>
