<?xml version="1.0" encoding="UTF-8"?>
<svg version="1.1" xmlns="http://www.w3.org/2000/svg" width="1250" height="1250">
<path d="M0 0 C1.21660043 -0.00205263 2.43320087 -0.00410527 3.68666798 -0.0062201 C7.05228649 -0.01088783 10.41785136 -0.01112086 13.78346909 -0.00944251 C17.44957931 -0.00870827 21.11568249 -0.01374173 24.78178966 -0.01801753 C32.0481864 -0.02558066 39.31457578 -0.02778973 46.58097604 -0.02834659 C55.28719497 -0.02926192 63.99340714 -0.03593454 72.69962315 -0.04269341 C93.74204233 -0.05873957 114.78446077 -0.06465542 135.82688496 -0.06944216 C145.78709547 -0.07177981 155.74730541 -0.07538268 165.70751547 -0.07913754 C199.82095507 -0.09197272 233.93439434 -0.10269122 268.0478363 -0.10614014 C270.18860012 -0.10636177 272.32936394 -0.10658355 274.47012775 -0.10680549 C276.61598698 -0.10702613 278.7618462 -0.10724661 280.90770543 -0.10746694 C285.21247681 -0.10790948 289.51724819 -0.1083566 293.82201958 -0.10880661 C294.88934955 -0.108916 295.95667952 -0.10902539 297.05635283 -0.1091381 C331.64607647 -0.11276681 366.23577912 -0.12868001 400.82549473 -0.15199697 C437.41906657 -0.1766195 474.01262642 -0.19031413 510.60620677 -0.19150805 C514.62711772 -0.1916795 518.64802865 -0.19189493 522.66893959 -0.19214249 C523.65895848 -0.19219826 524.64897737 -0.19225402 525.66899683 -0.19231148 C541.56944256 -0.19345991 557.46986668 -0.20446431 573.37030512 -0.21902954 C589.3683104 -0.23343014 605.36628813 -0.23661149 621.36429812 -0.22858956 C630.85524549 -0.22414984 640.34610361 -0.22792713 649.83703916 -0.24382807 C656.19371506 -0.25363881 662.550329 -0.25234224 668.90700444 -0.24239184 C672.51783671 -0.23704328 676.12849867 -0.23614653 679.73931624 -0.24890056 C701.28685185 -0.32023096 722.34696696 0.98243436 743.37328911 5.94392776 C745.05974541 6.33294266 745.05974541 6.33294266 746.78027153 6.72981644 C792.64325238 17.52283284 836.56500547 38.99008066 871.37328911 71.06502151 C873.35775731 72.88756263 875.38114803 74.63926335 877.43578911 76.38142776 C887.08747499 84.82176845 895.68064299 94.07763221 903.62328911 104.13142776 C905.08147419 105.86071946 906.53981064 107.58988351 907.99828911 109.31892776 C917.34399156 120.76497102 925.36070772 133.27900536 932.62328911 146.13142776 C933.04577934 146.87392776 933.46826958 147.61642776 933.90356255 148.38142776 C946.60332185 170.94228578 955.46437287 195.02233722 961.62328911 220.13142776 C961.83034477 220.96931839 962.03740044 221.80720901 962.25073051 222.67049026 C967.70790741 245.25318018 969.07909507 267.83778673 969.00869177 291.00333445 C969.00095399 294.67214983 969.01091092 298.3409298 969.01842177 302.00973988 C969.0291695 308.41481981 969.02898259 314.81982365 969.02128029 321.22490692 C969.00985759 330.75003459 969.01577278 340.27509895 969.02490521 349.8002263 C969.04064719 366.81940624 969.03935537 383.83855225 969.03066847 400.85773537 C969.02310403 415.75203986 969.02115997 430.64633195 969.0247364 445.54063797 C969.02496556 446.53090221 969.02519471 447.52116646 969.02543081 448.54143871 C969.02636492 452.56184555 969.02732013 456.5822524 969.02831011 460.60265923 C969.03747483 498.27132864 969.02918622 535.93997651 969.01301941 573.60864259 C968.99878397 607.03128825 969.00005791 640.4538996 969.01440239 673.87654495 C969.03048704 711.47894536 969.03682472 749.08132676 969.0275656 786.68373013 C969.02660353 790.69655927 969.02566501 794.70938841 969.0247364 798.72221756 C969.02438056 800.20416939 969.02438056 800.20416939 969.02401752 801.71605963 C969.02061367 816.59631168 969.02457991 831.47654994 969.03217506 846.35680008 C969.04077348 863.28642186 969.03856448 880.21600459 969.02233283 897.14562154 C969.01356065 906.60553092 969.01289554 916.06535562 969.02427136 925.5252627 C969.03104592 931.86076133 969.02672717 938.19619269 969.01375705 944.53168143 C969.00668732 948.1301645 969.00403873 951.72848058 969.014975 955.32695782 C969.07385302 976.22145387 967.84434774 996.72697216 963.37328911 1017.19392776 C963.16204399 1018.17321243 962.95079887 1019.1524971 962.73315239 1020.16145706 C952.26170494 1067.08752359 929.78969217 1113.00611291 896.62328911 1148.13142776 C895.57709681 1149.35674479 894.53538738 1150.58590412 893.49828911 1151.81892776 C884.45433927 1162.16688898 874.51061301 1171.75217848 863.62328911 1180.13142776 C862.33641347 1181.14652396 861.04998844 1182.16219156 859.76391411 1183.17830276 C806.97866334 1224.56946168 743.82938852 1244.9289185 677.01778527 1244.63909662 C673.3478088 1244.62779406 669.67788708 1244.64028541 666.0079149 1244.64940411 C659.61008918 1244.66216829 653.21240277 1244.66045853 646.8145771 1244.64862442 C637.30035286 1244.63107497 627.78623596 1244.6368022 618.27200579 1244.64679133 C601.27105489 1244.66389589 584.27016891 1244.65849877 567.26921942 1244.64343414 C552.39441249 1244.63033964 537.51962798 1244.62519462 522.64481544 1244.6277523 C521.65496364 1244.62791272 520.66511183 1244.62807314 519.64526452 1244.62823841 C515.62636557 1244.62890208 511.60746663 1244.62960451 507.5885677 1244.63036375 C469.95855562 1244.63737362 432.32858299 1244.62194297 394.69858095 1244.59574029 C361.31523561 1244.5726178 327.93193361 1244.56724256 294.54858208 1244.57747269 C285.99465563 1244.58007501 277.44072918 1244.58266011 268.88680267 1244.58507061 C267.30683322 1244.58551678 267.30683322 1244.58551678 265.6949452 1244.58597197 C237.73895002 1244.5935965 209.78295834 1244.58716628 181.82696474 1244.57637459 C178.81698659 1244.57522687 175.80700844 1244.57408369 172.79703028 1244.57294777 C170.80058344 1244.57219252 168.80413659 1244.57142688 166.80768975 1244.57065076 C151.94329784 1244.56500739 137.07891717 1244.56631215 122.21452522 1244.57087898 C105.30700477 1244.57599994 88.3995262 1244.57007532 71.49201615 1244.54998469 C62.04540908 1244.53904647 52.59888442 1244.53616025 43.15227494 1244.54527322 C36.82585193 1244.55052966 30.49949883 1244.54469985 24.17309044 1244.53021987 C20.57990018 1244.52228962 16.98687522 1244.51876527 13.39368637 1244.52879243 C-7.48800416 1244.5824311 -27.98484345 1243.34973648 -48.43921089 1238.88142776 C-49.41849556 1238.67018265 -50.39778023 1238.45893753 -51.40674019 1238.24129105 C-98.92239546 1227.63827818 -144.94572121 1204.78780829 -180.37671089 1171.13142776 C-181.66260163 1170.02053991 -182.95398882 1168.91597117 -184.25171089 1167.81892776 C-193.88742372 1159.40993813 -202.45820009 1150.16154145 -210.37671089 1140.13142776 C-211.8757074 1138.33892145 -213.37572039 1136.54726471 -214.87671089 1134.75642776 C-246.74881175 1095.66071927 -265.54162941 1047.62281955 -273.37671089 998.13142776 C-273.5516727 997.03385448 -273.72663452 995.9362812 -273.9068982 994.80544811 C-275.7755572 981.27062948 -275.66382314 967.75542889 -275.63984736 954.11538443 C-275.63563584 950.44792206 -275.6431021 946.78047894 -275.64899987 943.11302143 C-275.65772317 936.69946744 -275.65908784 930.28594538 -275.6554966 923.87238693 C-275.65017014 914.33453377 -275.65630441 904.7967113 -275.66457953 895.25886147 C-275.67979319 877.22904584 -275.68152727 859.19924428 -275.6790565 841.16942357 C-275.67722132 827.24173341 -275.67898818 813.31404785 -275.68328094 799.38635826 C-275.68388336 797.38284645 -275.68448455 795.37933464 -275.68508455 793.37582283 C-275.68599184 790.35641563 -275.68690051 787.33700843 -275.6878169 784.31760123 C-275.69624266 756.2557209 -275.70058478 728.19384229 -275.69641018 700.13196087 C-275.6962538 699.07479472 -275.69609743 698.01762856 -275.69593631 696.92842707 C-275.69513057 691.57073984 -275.6942848 686.21305261 -275.69342301 680.85536539 C-275.69316638 679.25939214 -275.69316638 679.25939214 -275.69290456 677.631177 C-275.69255791 675.4795475 -275.69220938 673.32791799 -275.69185898 671.17628849 C-275.68650352 637.70779259 -275.69442876 604.23932305 -275.71289253 570.77083206 C-275.73363111 533.13515719 -275.74433162 495.49949865 -275.74031705 457.86381775 C-275.73992173 453.84694771 -275.73956017 449.83007767 -275.73921967 445.81320763 C-275.73912893 444.82421424 -275.7390382 443.83522085 -275.73894472 442.81625797 C-275.73778108 427.91750252 -275.74440933 413.01876361 -275.75503159 398.12001228 C-275.76710812 381.16460506 -275.76861443 364.20923416 -275.75624142 347.25382637 C-275.74963539 337.778398 -275.75119148 328.3030566 -275.76482993 318.82763527 C-275.77312259 312.48154801 -275.77031493 306.13552536 -275.75885467 299.78944327 C-275.75264548 296.1847856 -275.7508728 292.58029658 -275.762718 288.97564917 C-275.82868552 267.44295375 -274.52227851 246.39323175 -269.56421089 225.38142776 C-269.30486763 224.25712357 -269.04552437 223.13281937 -268.77832222 221.97444534 C-257.98530582 176.11146449 -236.51805799 132.1897114 -204.44311714 97.38142776 C-202.62057603 95.39695956 -200.86887531 93.37356884 -199.12671089 91.31892776 C-191.53202798 82.63426721 -183.28156629 74.52086943 -174.21435738 67.38435745 C-171.52280483 65.24741803 -168.88516044 63.05729696 -166.24780464 60.85408401 C-120.79526297 23.64830259 -58.97400307 -0.09327295 0 0 Z " fill="#FEFEFE" transform="translate(278.37671089172363,2.868572235107422)"/>
<path d="M0 0 C1.93862871 0.27611622 3.8772686 0.55215391 5.81591797 0.828125 C42.71555319 6.13675026 42.71555319 6.13675026 54 10 C52.99608647 14.78789528 51.89853223 19.45542641 50.4375 24.125 C44.38148521 44.12820038 48.21802532 67.35102815 57.6875 85.6875 C60.76221419 91.41227634 64.36597819 96.18094887 68.921875 100.8515625 C71 103 71 103 72.87109375 105.4375 C80.19652564 114.25490059 90.12547124 120.03923749 100.52734375 124.46484375 C104.20282834 126.08966427 107.54401749 127.95642414 111 130 C111.15794366 135.81759132 110.56907896 141.04603215 109.5 146.75 C105.24034243 171.59677206 108.62636104 194.9518967 123 216 C135.23568038 232.83613354 153.20050668 246.01781853 174 250 C196.77031519 253.25208925 219.67654031 250.85401769 239.07739258 237.85913086 C243.50145527 234.96341386 243.50145527 234.96341386 246.07592773 235.15234375 C248 236 248 236 249.09326172 237.68310547 C249.50729248 238.76422607 249.50729248 238.76422607 249.9296875 239.8671875 C250.24663574 240.66503662 250.56358398 241.46288574 250.89013672 242.28491211 C251.2151416 243.13964111 251.54014648 243.99437012 251.875 244.875 C252.57951355 246.62524032 253.28783355 248.37395338 254 250.12109375 C254.51433594 251.38928955 254.51433594 251.38928955 255.0390625 252.68310547 C264.3788305 275.20200749 283.51515438 289.7235412 305.5 298.875 C311.23139999 300.97698044 316.84187899 301.81153686 322.87890625 302.55859375 C326.92960583 303.13147116 329.59576561 303.70412099 333 306 C334.78436469 312.22934459 333.21492654 316.28976516 330.6875 321.9375 C330.32648193 322.76580322 329.96546387 323.59410645 329.59350586 324.44750977 C323.77623867 337.37958045 315.76464137 348.90433699 307 360 C306.29359375 360.89976562 305.5871875 361.79953125 304.859375 362.7265625 C290.8515168 380.21119126 274.84298028 397.41113627 257 411 C255.75155726 411.98695842 254.50425068 412.97535497 253.2578125 413.96484375 C206.99919094 450.38272517 150.86282104 475.25419555 94.17138672 490.16455078 C90.88224442 491.03102075 87.59939198 491.9191055 84.31640625 492.80859375 C46.2745401 503.0168818 7.25895531 509.08091929 -32 512 C-33.3294532 512.10366958 -34.65888018 512.20767579 -35.98828125 512.31201172 C-95.7001604 516.92854815 -157.47614532 514.59422072 -216.24365234 502.56103516 C-219.39425003 501.91975318 -222.55044609 501.31032797 -225.70703125 500.69921875 C-248.76964358 496.16013414 -271.69491691 490.62901164 -293.86621094 482.75195312 C-296.15691312 481.94470339 -298.4561894 481.16616186 -300.7578125 480.390625 C-362.73594067 459.3586227 -429.57711718 425.50659805 -472 374 C-473.20462891 372.64455078 -473.20462891 372.64455078 -474.43359375 371.26171875 C-490.288081 353.32729696 -502.68713062 332.41972911 -511 310 C-511.58394531 308.43958984 -511.58394531 308.43958984 -512.1796875 306.84765625 C-520.53105607 282.21435594 -523.20263956 252.66066576 -517.49169922 227.21191406 C-516.96269366 224.83217705 -516.48403767 222.44473653 -516.00390625 220.0546875 C-508.80381841 185.76318093 -490.69871238 155.23179858 -466.76171875 129.97265625 C-464.88253376 127.98399145 -463.10601562 125.94687238 -461.375 123.828125 C-459.44018673 121.52416973 -457.60395314 119.61112769 -455.3125 117.6875 C-452.32620792 115.14915173 -449.43203564 112.54444897 -446.5625 109.875 C-381.80489112 51.56340119 -293.38635581 20.70814881 -203 4 C-201.87916016 3.79536133 -200.75832031 3.59072266 -199.60351562 3.37988281 C-191.76416073 1.98746175 -183.90489675 0.94285786 -176 0 C-174.54928662 -0.18352122 -173.09860435 -0.36728846 -171.64794922 -0.55126953 C-115.99616932 -7.44657195 -55.53101613 -8.1156467 0 0 Z " fill="#000000" transform="translate(713,238)"/>
<path d="M0 0 C0.33 0 0.66 0 1 0 C1.10203327 40.80359054 1.1513139 81.6048551 0.59428024 122.40558624 C0.56289364 124.72096128 0.53280584 127.03635024 0.50296021 129.35174561 C0.31875828 143.42740133 0.0895227 157.49966029 -0.46875 171.56640625 C-0.50532211 172.51525696 -0.54189423 173.46410767 -0.57957458 174.44171143 C-2.25740843 212.61531377 -24.29821265 249.14933634 -49.7265625 276.54296875 C-51.74184416 278.72099653 -53.69272436 280.93609286 -55.625 283.1875 C-61.57056116 290.01027511 -68.07151862 296.18831608 -75 302 C-75.54124512 302.45503906 -76.08249023 302.91007812 -76.64013672 303.37890625 C-101.04470787 323.8063878 -127.55115518 339.81130612 -156 354 C-156.88461914 354.44359863 -157.76923828 354.88719727 -158.68066406 355.34423828 C-175.8754329 363.91423159 -193.83871643 370.77003786 -212 377 C-212.76602539 377.27102539 -213.53205078 377.54205078 -214.32128906 377.82128906 C-245.17702256 388.72607936 -276.77951949 396.43958218 -309 402 C-309.70187439 402.12139343 -310.40374878 402.24278687 -311.12689209 402.36785889 C-367.68341829 412.09704413 -425.9712848 415.1578758 -483.2109375 410.31640625 C-486.56281866 410.0365069 -489.91509797 409.78065175 -493.26956177 409.5348053 C-523.15135836 407.3321275 -552.71827619 403.44330678 -582 397 C-583.05445313 396.77199707 -584.10890625 396.54399414 -585.1953125 396.30908203 C-601.00715794 392.87264724 -616.55608589 388.82724737 -632 384 C-633.1442041 383.64454102 -634.2884082 383.28908203 -635.46728516 382.92285156 C-692.9153915 364.90387237 -749.06713789 337.6048723 -794 297 C-794.94383545 296.14873535 -794.94383545 296.14873535 -795.90673828 295.28027344 C-822.12116649 271.51269827 -844.94600166 242.20800371 -855.40771484 207.93945312 C-855.97179673 206.09235234 -856.57286391 204.25666664 -857.17578125 202.421875 C-859.3312423 195.30493452 -860.41868538 188.39952985 -861.0390625 181.01171875 C-861.12284149 180.01991104 -861.20662048 179.02810333 -861.29293823 178.00624084 C-862.33858847 164.75730654 -862.71365585 151.47894853 -863.06485748 138.19709396 C-863.12575808 135.90901838 -863.18939292 133.62103015 -863.25335693 131.33303833 C-864.44942954 87.89937233 -864.18999956 44.44548988 -864 1 C-861.60694748 3.31270714 -860.03406849 5.46494676 -858.43359375 8.39453125 C-857.95317627 9.26094238 -857.47275879 10.12735352 -856.9777832 11.02001953 C-856.46948975 11.94153809 -855.96119629 12.86305664 -855.4375 13.8125 C-841.63920249 38.36840175 -822.89798562 61.15645805 -800.80859375 78.7421875 C-798.98014388 80.21206793 -797.17851694 81.71616472 -795.41015625 83.2578125 C-772.1424314 103.48771387 -744.40956685 118.25636693 -717 132 C-716.25411621 132.37495605 -715.50823242 132.74991211 -714.73974609 133.13623047 C-675.69325012 152.57487605 -632.85724623 165.2886696 -590.29345703 174.30224609 C-587.40985646 174.91316755 -584.53050079 175.53982553 -581.65234375 176.17578125 C-577.11183834 177.17147751 -572.56029014 178.09973583 -568 179 C-567.23171875 179.15533203 -566.4634375 179.31066406 -565.671875 179.47070312 C-551.81377673 182.23114689 -537.83669758 183.96988728 -523.8125 185.625 C-522.94262451 185.72932343 -522.07274902 185.83364685 -521.17651367 185.94113159 C-514.79121178 186.70126152 -508.40066619 187.38250821 -502 188 C-500.50143463 188.14464188 -500.50143463 188.14464188 -498.97259521 188.29220581 C-477.91414761 190.23969045 -456.89391832 190.3611713 -435.76434326 190.31805801 C-432.96415143 190.31242792 -430.16396564 190.30960061 -427.36376953 190.30697632 C-400.16671992 190.26991746 -373.05733382 190.05573996 -346 187 C-344.83914886 186.8691803 -344.83914886 186.8691803 -343.65484619 186.73571777 C-332.39055938 185.44427827 -321.18808514 183.83315037 -310 182 C-309.29335205 181.88485046 -308.5867041 181.76970093 -307.85864258 181.65106201 C-279.74320109 177.04660965 -252.12223735 170.78972291 -225 162 C-223.64674027 161.56595301 -222.29338156 161.13221453 -220.93994141 160.69873047 C-169.00074741 144.02556502 -118.01732326 122.21377804 -75 88 C-74.07574219 87.26652344 -73.15148437 86.53304687 -72.19921875 85.77734375 C-66.80221009 81.42539901 -61.58002692 76.91328562 -56.4609375 72.23828125 C-54.83577751 70.76015954 -53.19526094 69.29872739 -51.5390625 67.85546875 C-31.32905632 50.1637441 -16.20036261 28.13624503 -3.09399414 4.87841797 C-2.12489176 3.21444258 -1.06813619 1.60220429 0 0 Z " fill="#000000" transform="translate(1057,606)"/>
<path d="M0 0 C0.79921875 -0.01675781 1.5984375 -0.03351563 2.421875 -0.05078125 C10.47319361 0.98343509 16.3153275 5.10512932 22.6875 9.8125 C23.50154297 10.39386719 24.31558594 10.97523438 25.15429688 11.57421875 C31.12015987 15.9229796 31.12015987 15.9229796 32.25 19.3125 C32.4039263 22.11410502 32.50738045 24.89548425 32.56640625 27.69921875 C32.58718735 28.51622757 32.60796844 29.33323639 32.62937927 30.17500305 C32.69473079 32.78325034 32.75369273 35.39159775 32.8125 38 C32.85569892 39.76889054 32.89931365 41.53777097 32.94335938 43.30664062 C33.05039743 47.64182463 33.15170544 51.97710929 33.25 56.3125 C30.73580492 57.49565062 28.21521326 58.65888285 25.6875 59.8125 C24.98302734 60.14636719 24.27855469 60.48023438 23.55273438 60.82421875 C17.32899041 63.63494183 12.06572758 64.2736507 5.5 61.921875 C4.65131348 61.62659912 3.80262695 61.33132324 2.92822266 61.02709961 C2.04440918 60.70878174 1.1605957 60.39046387 0.25 60.0625 C-6.16691765 57.81371663 -12.50577296 55.80026581 -19.125 54.25 C-25.77893894 52.52463509 -30.16699765 50.50166018 -33.82421875 44.5703125 C-36.43957819 38.8662254 -36.72794924 32.44381654 -35.75 26.3125 C-33.12245445 20.25354793 -26.19412963 16.64420239 -20.93945312 13.02099609 C-16.92786985 10.24087063 -13.43729741 7.35011007 -10.1796875 3.6875 C-7.10521267 0.73062803 -4.19066982 0.02001912 0 0 Z " fill="#020202" transform="translate(1011.75,362.6875)"/>
<path d="M0 0 C5.34583498 2.9199939 11.14715041 6.31887777 13.32421875 12.26953125 C13.09811142 23.57489767 7.12672498 33.14465676 -0.09765625 41.3359375 C-2.38876331 44.14311076 -4.27862628 47.17582322 -6.18359375 50.25390625 C-7.81553271 52.45830548 -9.35689301 53.81401076 -11.67578125 55.26953125 C-16.3774328 55.86974209 -18.94190037 55.13611551 -22.67578125 52.26953125 C-24.44359966 49.67064905 -25.80202245 46.90479005 -27.17578125 44.08203125 C-27.91224105 42.60781047 -28.65182332 41.13514539 -29.39453125 39.6640625 C-29.7601416 38.93687012 -30.12575195 38.20967773 -30.50244141 37.46044922 C-32.06044106 34.5512755 -33.83966147 31.81386923 -35.67919922 29.07592773 C-37.49940297 25.77664122 -37.43392671 22.82180958 -36.67578125 19.26953125 C-33.95639622 10.63894062 -30.38135737 3.74269458 -23.05078125 -1.66796875 C-15.17117805 -4.14858457 -7.46856147 -3.40354734 0 0 Z " fill="#030303" transform="translate(911.67578125,280.73046875)"/>
<path d="M0 0 C6.54641666 2.95577477 12.03049309 6.95053006 16 13 C17.75267445 18.25802336 17.77111783 22.3652302 15.4375 27.3125 C11.69987678 31.43346919 8.55249213 32.74720848 3.16015625 33.28125 C-4.47943017 33.51246069 -9.904827 32.4571038 -16.5 28.5 C-19.08396827 24.19338622 -18.74000741 19.86474439 -18 15 C-15.15078537 6.41598316 -10.12980018 -1.85713003 0 0 Z " fill="#030303" transform="translate(1009,261)"/>
</svg>
