<?xml version="1.0" encoding="UTF-8"?>
<svg version="1.1" xmlns="http://www.w3.org/2000/svg" width="980" height="980">
<path d="M0 0 C1.04105411 -0.00205263 2.08210822 -0.00410527 3.15470943 -0.0062201 C6.64211587 -0.0118732 10.12948261 -0.01043493 13.61689281 -0.00901413 C16.14303434 -0.01159874 18.66917546 -0.01461217 21.19531602 -0.01801753 C27.40932278 -0.02523457 33.62331717 -0.02778962 39.83732764 -0.02834659 C47.28296242 -0.02926213 54.72858931 -0.03593537 62.17422069 -0.04269341 C80.16904592 -0.05873695 98.16387028 -0.06465502 116.15870138 -0.06944216 C124.67629019 -0.07177996 133.19387833 -0.07538284 141.71146662 -0.07913754 C170.88407235 -0.09197218 200.05667771 -0.10269097 229.22928619 -0.10614014 C231.05985789 -0.10636177 232.89042958 -0.10658355 234.72100128 -0.10680549 C236.55592651 -0.10702613 238.39085174 -0.10724661 240.22577697 -0.10746694 C243.90678267 -0.10790948 247.58778836 -0.1083566 251.26879406 -0.10880661 C252.18146632 -0.108916 253.09413857 -0.10902539 254.03446756 -0.1091381 C283.61464682 -0.11276712 313.19480156 -0.12868177 342.77497143 -0.15199697 C374.06911526 -0.17661791 405.36324508 -0.19031404 436.65739888 -0.19150805 C440.09577255 -0.1916795 443.53414621 -0.19189493 446.97251987 -0.19214249 C447.81910731 -0.19219826 448.66569474 -0.19225402 449.53793633 -0.19231148 C463.13603196 -0.19346002 476.73410232 -0.20446524 490.33218943 -0.21902954 C504.01253962 -0.23342804 517.69285758 -0.23661266 531.37321327 -0.22858956 C539.4897174 -0.22414894 547.60611718 -0.22793079 555.7226075 -0.24382807 C561.79972558 -0.25479341 567.87672597 -0.24988794 573.95384862 -0.2390562 C576.40008487 -0.23710551 578.84633173 -0.24014833 581.2925531 -0.24890056 C599.01222029 -0.30824722 616.21574137 0.87807126 633.42187023 5.38142776 C634.23438244 5.59049759 635.04689465 5.79956741 635.88402843 6.01497269 C669.1867072 14.90061456 698.6304558 32.24823544 723.35937023 56.13142776 C724.34213343 57.0510297 725.32520974 57.97029713 726.30858898 58.88924026 C743.57503237 75.29094852 756.33449236 95.67175011 766.35937023 117.13142776 C767.15987804 118.8213887 767.15987804 118.8213887 767.97655773 120.54549026 C777.63587678 141.91610806 783.5340677 166.19078248 783.490798 189.66462708 C783.49387695 191.22701004 783.49387695 191.22701004 783.4970181 192.82095629 C783.50267899 196.31620267 783.50123196 199.81140954 783.49981213 203.3066597 C783.50239629 205.83606297 783.5054096 208.36546584 783.50881553 210.89486814 C783.51603698 217.12082427 783.51858787 223.34676805 783.51914458 229.57272789 C783.52005964 237.031859 783.52673145 244.49098222 783.53349141 251.95010993 C783.54954053 269.97891804 783.55545378 288.00772528 783.56024016 306.03653925 C783.56257754 314.56983764 783.56618038 323.10313537 783.56993553 331.63643324 C783.58277106 360.86107596 783.59348947 390.0857183 783.59693813 419.31036377 C783.59715976 421.14447358 783.59738155 422.97858339 783.59760348 424.81269319 C783.59782412 426.65117706 783.59804461 428.48966092 783.59826493 430.32814479 C783.59870748 434.01631594 783.5991546 437.70448709 783.59960461 441.39265823 C783.599714 442.30710822 783.59982339 443.2215582 783.59993609 444.16371879 C783.60356482 473.79908289 783.6194779 503.43442251 783.64279497 533.06977723 C783.66741589 564.41977054 783.68111205 595.76974986 783.68230605 627.11975312 C783.6824775 630.56432104 783.68269292 634.00888896 783.68294048 637.45345688 C783.68299625 638.30157396 783.68305202 639.14969104 783.68310948 640.02350864 C783.68425806 653.6467647 783.69526376 667.26999554 783.70982754 680.8932431 C783.72422609 694.59948009 783.72741064 708.30568492 783.71938756 722.0119274 C783.71494685 730.14397883 783.71872911 738.2759261 783.73462607 746.40796375 C783.74559115 752.49669716 783.74068612 758.5853131 783.7298542 764.67405108 C783.72790345 767.12502782 783.73094659 769.57601514 783.73969856 772.02697703 C783.7989731 789.75991962 782.61612336 806.97482134 778.10937023 824.19392776 C777.90030041 825.00643997 777.69123058 825.81895218 777.47582531 826.65608597 C768.78828899 859.21628088 752.02068965 888.32845169 728.77147961 912.65193558 C727.83502463 913.63307616 726.90394792 914.61938024 725.97851086 915.61091995 C709.21345688 933.54645372 688.49297123 946.79172693 666.35937023 957.13142776 C665.23272961 957.66509964 664.10608898 958.19877151 662.94530773 958.74861526 C641.57468993 968.40793432 617.30001551 974.30612523 593.82617092 974.26285553 C592.78458228 974.26490816 591.74299364 974.2669608 590.66984171 974.26907563 C587.17459532 974.27473652 583.67938846 974.27328949 580.1841383 974.27186966 C577.65473503 974.27445383 575.12533216 974.27746713 572.59592986 974.28087306 C566.36997373 974.28809451 560.14402994 974.29064541 553.91807011 974.29120212 C546.45893899 974.29211717 538.99981577 974.29878898 531.54068806 974.30554894 C513.51187996 974.32159806 495.48307271 974.32751131 477.45425875 974.33229769 C468.92096035 974.33463507 460.38766263 974.33823791 451.85436475 974.34199307 C422.62972204 974.35482859 393.4050797 974.365547 364.18043423 974.36899567 C362.34632442 974.3692173 360.51221461 974.36943908 358.6781048 974.36966102 C356.83962094 974.36988166 355.00113707 974.37010214 353.16265321 974.37032247 C349.47448206 974.37076501 345.78631091 974.37121213 342.09813976 974.37166214 C341.18368978 974.37177153 340.26923979 974.37188092 339.3270792 974.37199363 C309.6917151 974.37562235 280.05637549 974.39153543 250.42102076 974.4148525 C219.07102745 974.43947343 187.72104813 974.45316959 156.37104487 974.45436358 C152.92647695 974.45453503 149.48190904 974.45475046 146.03734112 974.45499802 C144.76516549 974.45508167 144.76516549 974.45508167 143.46728935 974.45516701 C129.8440333 974.45631559 116.22080245 974.46732129 102.5975549 974.48188507 C88.89131791 974.49628363 75.18511308 974.49946817 61.4788706 974.49144509 C53.34681917 974.48700438 45.21487189 974.49078664 37.08283424 974.5066836 C30.99410084 974.51764868 24.9054849 974.51274365 18.81674692 974.50191173 C16.36577018 974.49996098 13.91478285 974.50300412 11.46382096 974.51175609 C-6.26912162 974.57103064 -23.48402334 973.38818089 -40.70312977 968.88142776 C-41.92189808 968.56782303 -41.92189808 968.56782303 -43.16528797 968.24788284 C-76.46796673 959.36224097 -105.91171534 942.01462009 -130.64062977 918.13142776 C-131.62339297 917.21182583 -132.60646927 916.2925584 -133.58984852 915.37361526 C-150.85629191 898.97190701 -163.6157519 878.59110542 -173.64062977 857.13142776 C-174.17430164 856.00478714 -174.70797352 854.87814651 -175.25781727 853.71736526 C-185.11324047 831.91287973 -190.81637421 807.42665192 -190.77205753 783.490798 C-190.77411017 782.44974389 -190.7761628 781.40868977 -190.77827764 780.33608857 C-190.78393073 776.84868213 -190.78249247 773.36131539 -190.78107166 769.87390518 C-190.78365627 767.34776365 -190.7866697 764.82162253 -190.79007506 762.29548198 C-190.7972921 756.08147521 -190.79984715 749.86748082 -190.80040412 743.65347036 C-190.80131966 736.20783557 -190.8079929 728.76220869 -190.81475094 721.31657731 C-190.83079449 703.32175208 -190.83671255 685.32692772 -190.84149969 667.33209662 C-190.8438375 658.8145078 -190.84744037 650.29691966 -190.85119507 641.77933137 C-190.86402972 612.60672565 -190.8747485 583.43412029 -190.87819767 554.2615118 C-190.8784193 552.43094011 -190.87864108 550.60036841 -190.87886302 548.76979672 C-190.87908366 546.93487149 -190.87930414 545.09994626 -190.87952447 543.26502103 C-190.87996701 539.58401533 -190.88041413 535.90300963 -190.88086414 532.22200394 C-190.88097353 531.30933168 -190.88108293 530.39665943 -190.88119563 529.45633043 C-190.88482465 499.87615117 -190.9007393 470.29599644 -190.92405451 440.71582657 C-190.94867544 409.42168274 -190.96237158 378.12755292 -190.96356559 346.83339912 C-190.96373703 343.39502545 -190.96395246 339.95665179 -190.96420002 336.51827812 C-190.96425579 335.67169069 -190.96431156 334.82510326 -190.96436902 333.95286166 C-190.96551755 320.35476604 -190.97652278 306.75669568 -190.99108708 293.15860857 C-191.00548557 279.47825838 -191.0086702 265.79794042 -191.0006471 252.11758473 C-190.99620647 244.00108059 -190.99998832 235.88468082 -191.0158856 227.76819049 C-191.02685094 221.69107242 -191.02194548 215.61407203 -191.01111373 209.53694937 C-191.00916304 207.09071312 -191.01220587 204.64446626 -191.0209581 202.19824489 C-191.08030409 184.47877375 -189.89443111 167.27481073 -185.39062977 150.06892776 C-185.18155994 149.25714066 -184.97249012 148.44535355 -184.75708485 147.60896683 C-180.94371731 133.32642282 -175.47841626 119.87968441 -168.54443836 106.84187698 C-167.74890322 105.33633424 -166.98333896 103.81503542 -166.22266102 102.29158401 C-146.70249776 64.22440347 -111.88655814 34.99799441 -73.64062977 17.13142776 C-72.51398914 16.59775589 -71.38734852 16.06408401 -70.22656727 15.51424026 C-48.42208174 5.65881706 -23.93585393 -0.04431668 0 0 Z " fill="#FEFEFE" transform="translate(193.64062976837158,2.868572235107422)"/>
<path d="M0 0 C1.93862871 0.27611622 3.8772686 0.55215391 5.81591797 0.828125 C42.71555319 6.13675026 42.71555319 6.13675026 54 10 C52.99608647 14.78789528 51.89853223 19.45542641 50.4375 24.125 C44.38148521 44.12820038 48.21802532 67.35102815 57.6875 85.6875 C60.76221419 91.41227634 64.36597819 96.18094887 68.921875 100.8515625 C71 103 71 103 72.87109375 105.4375 C80.19652564 114.25490059 90.12547124 120.03923749 100.52734375 124.46484375 C104.20282834 126.08966427 107.54401749 127.95642414 111 130 C111.15794366 135.81759132 110.56907896 141.04603215 109.5 146.75 C105.24034243 171.59677206 108.62636104 194.9518967 123 216 C135.23568038 232.83613354 153.20050668 246.01781853 174 250 C196.77031519 253.25208925 219.67654031 250.85401769 239.07739258 237.85913086 C243.50145527 234.96341386 243.50145527 234.96341386 246.07592773 235.15234375 C248 236 248 236 249.09326172 237.68310547 C249.50729248 238.76422607 249.50729248 238.76422607 249.9296875 239.8671875 C250.24663574 240.66503662 250.56358398 241.46288574 250.89013672 242.28491211 C251.2151416 243.13964111 251.54014648 243.99437012 251.875 244.875 C252.57951355 246.62524032 253.28783355 248.37395338 254 250.12109375 C254.51433594 251.38928955 254.51433594 251.38928955 255.0390625 252.68310547 C264.3788305 275.20200749 283.51515438 289.7235412 305.5 298.875 C311.23139999 300.97698044 316.84187899 301.81153686 322.87890625 302.55859375 C326.92960583 303.13147116 329.59576561 303.70412099 333 306 C334.78436469 312.22934459 333.21492654 316.28976516 330.6875 321.9375 C330.32648193 322.76580322 329.96546387 323.59410645 329.59350586 324.44750977 C323.77623867 337.37958045 315.76464137 348.90433699 307 360 C306.29359375 360.89976562 305.5871875 361.79953125 304.859375 362.7265625 C290.8515168 380.21119126 274.84298028 397.41113627 257 411 C255.75155726 411.98695842 254.50425068 412.97535497 253.2578125 413.96484375 C206.99919094 450.38272517 150.86282104 475.25419555 94.17138672 490.16455078 C90.88224442 491.03102075 87.59939198 491.9191055 84.31640625 492.80859375 C46.2745401 503.0168818 7.25895531 509.08091929 -32 512 C-33.3294532 512.10366958 -34.65888018 512.20767579 -35.98828125 512.31201172 C-95.7001604 516.92854815 -157.47614532 514.59422072 -216.24365234 502.56103516 C-219.39425003 501.91975318 -222.55044609 501.31032797 -225.70703125 500.69921875 C-248.76964358 496.16013414 -271.69491691 490.62901164 -293.86621094 482.75195312 C-296.15691312 481.94470339 -298.4561894 481.16616186 -300.7578125 480.390625 C-362.73594067 459.3586227 -429.57711718 425.50659805 -472 374 C-473.20462891 372.64455078 -473.20462891 372.64455078 -474.43359375 371.26171875 C-490.288081 353.32729696 -502.68713062 332.41972911 -511 310 C-511.58394531 308.43958984 -511.58394531 308.43958984 -512.1796875 306.84765625 C-520.53105607 282.21435594 -523.20263956 252.66066576 -517.49169922 227.21191406 C-516.96269366 224.83217705 -516.48403767 222.44473653 -516.00390625 220.0546875 C-508.80381841 185.76318093 -490.69871238 155.23179858 -466.76171875 129.97265625 C-464.88253376 127.98399145 -463.10601562 125.94687238 -461.375 123.828125 C-459.44018673 121.52416973 -457.60395314 119.61112769 -455.3125 117.6875 C-452.32620792 115.14915173 -449.43203564 112.54444897 -446.5625 109.875 C-381.80489112 51.56340119 -293.38635581 20.70814881 -203 4 C-201.87916016 3.79536133 -200.75832031 3.59072266 -199.60351562 3.37988281 C-191.76416073 1.98746175 -183.90489675 0.94285786 -176 0 C-174.54928662 -0.18352122 -173.09860435 -0.36728846 -171.64794922 -0.55126953 C-115.99616932 -7.44657195 -55.53101613 -8.1156467 0 0 Z " fill="#000000" transform="translate(578,103)"/>
<path d="M0 0 C0.33 0 0.66 0 1 0 C1.10203327 40.80359054 1.1513139 81.6048551 0.59428024 122.40558624 C0.56289364 124.72096128 0.53280584 127.03635024 0.50296021 129.35174561 C0.31875828 143.42740133 0.0895227 157.49966029 -0.46875 171.56640625 C-0.50532211 172.51525696 -0.54189423 173.46410767 -0.57957458 174.44171143 C-2.25740843 212.61531377 -24.29821265 249.14933634 -49.7265625 276.54296875 C-51.74184416 278.72099653 -53.69272436 280.93609286 -55.625 283.1875 C-61.57056116 290.01027511 -68.07151862 296.18831608 -75 302 C-75.54124512 302.45503906 -76.08249023 302.91007812 -76.64013672 303.37890625 C-101.04470787 323.8063878 -127.55115518 339.81130612 -156 354 C-156.88461914 354.44359863 -157.76923828 354.88719727 -158.68066406 355.34423828 C-175.8754329 363.91423159 -193.83871643 370.77003786 -212 377 C-212.76602539 377.27102539 -213.53205078 377.54205078 -214.32128906 377.82128906 C-245.17702256 388.72607936 -276.77951949 396.43958218 -309 402 C-309.70187439 402.12139343 -310.40374878 402.24278687 -311.12689209 402.36785889 C-367.68341829 412.09704413 -425.9712848 415.1578758 -483.2109375 410.31640625 C-486.56281866 410.0365069 -489.91509797 409.78065175 -493.26956177 409.5348053 C-523.15135836 407.3321275 -552.71827619 403.44330678 -582 397 C-583.05445313 396.77199707 -584.10890625 396.54399414 -585.1953125 396.30908203 C-601.00715794 392.87264724 -616.55608589 388.82724737 -632 384 C-633.1442041 383.64454102 -634.2884082 383.28908203 -635.46728516 382.92285156 C-692.9153915 364.90387237 -749.06713789 337.6048723 -794 297 C-794.94383545 296.14873535 -794.94383545 296.14873535 -795.90673828 295.28027344 C-822.12116649 271.51269827 -844.94600166 242.20800371 -855.40771484 207.93945312 C-855.97179673 206.09235234 -856.57286391 204.25666664 -857.17578125 202.421875 C-859.3312423 195.30493452 -860.41868538 188.39952985 -861.0390625 181.01171875 C-861.12284149 180.01991104 -861.20662048 179.02810333 -861.29293823 178.00624084 C-862.33858847 164.75730654 -862.71365585 151.47894853 -863.06485748 138.19709396 C-863.12575808 135.90901838 -863.18939292 133.62103015 -863.25335693 131.33303833 C-864.44942954 87.89937233 -864.18999956 44.44548988 -864 1 C-861.60694748 3.31270714 -860.03406849 5.46494676 -858.43359375 8.39453125 C-857.95317627 9.26094238 -857.47275879 10.12735352 -856.9777832 11.02001953 C-856.46948975 11.94153809 -855.96119629 12.86305664 -855.4375 13.8125 C-841.63920249 38.36840175 -822.89798562 61.15645805 -800.80859375 78.7421875 C-798.98014388 80.21206793 -797.17851694 81.71616472 -795.41015625 83.2578125 C-772.1424314 103.48771387 -744.40956685 118.25636693 -717 132 C-716.25411621 132.37495605 -715.50823242 132.74991211 -714.73974609 133.13623047 C-675.69325012 152.57487605 -632.85724623 165.2886696 -590.29345703 174.30224609 C-587.40985646 174.91316755 -584.53050079 175.53982553 -581.65234375 176.17578125 C-577.11183834 177.17147751 -572.56029014 178.09973583 -568 179 C-567.23171875 179.15533203 -566.4634375 179.31066406 -565.671875 179.47070312 C-551.81377673 182.23114689 -537.83669758 183.96988728 -523.8125 185.625 C-522.94262451 185.72932343 -522.07274902 185.83364685 -521.17651367 185.94113159 C-514.79121178 186.70126152 -508.40066619 187.38250821 -502 188 C-500.50143463 188.14464188 -500.50143463 188.14464188 -498.97259521 188.29220581 C-477.91414761 190.23969045 -456.89391832 190.3611713 -435.76434326 190.31805801 C-432.96415143 190.31242792 -430.16396564 190.30960061 -427.36376953 190.30697632 C-400.16671992 190.26991746 -373.05733382 190.05573996 -346 187 C-344.83914886 186.8691803 -344.83914886 186.8691803 -343.65484619 186.73571777 C-332.39055938 185.44427827 -321.18808514 183.83315037 -310 182 C-309.29335205 181.88485046 -308.5867041 181.76970093 -307.85864258 181.65106201 C-279.74320109 177.04660965 -252.12223735 170.78972291 -225 162 C-223.64674027 161.56595301 -222.29338156 161.13221453 -220.93994141 160.69873047 C-169.00074741 144.02556502 -118.01732326 122.21377804 -75 88 C-74.07574219 87.26652344 -73.15148437 86.53304687 -72.19921875 85.77734375 C-66.80221009 81.42539901 -61.58002692 76.91328562 -56.4609375 72.23828125 C-54.83577751 70.76015954 -53.19526094 69.29872739 -51.5390625 67.85546875 C-31.32905632 50.1637441 -16.20036261 28.13624503 -3.09399414 4.87841797 C-2.12489176 3.21444258 -1.06813619 1.60220429 0 0 Z " fill="#000000" transform="translate(922,471)"/>
<path d="M0 0 C0.79921875 -0.01675781 1.5984375 -0.03351563 2.421875 -0.05078125 C10.47319361 0.98343509 16.3153275 5.10512932 22.6875 9.8125 C23.50154297 10.39386719 24.31558594 10.97523438 25.15429688 11.57421875 C31.12015987 15.9229796 31.12015987 15.9229796 32.25 19.3125 C32.4039263 22.11410502 32.50738045 24.89548425 32.56640625 27.69921875 C32.58718735 28.51622757 32.60796844 29.33323639 32.62937927 30.17500305 C32.69473079 32.78325034 32.75369273 35.39159775 32.8125 38 C32.85569892 39.76889054 32.89931365 41.53777097 32.94335938 43.30664062 C33.05039743 47.64182463 33.15170544 51.97710929 33.25 56.3125 C30.73580492 57.49565062 28.21521326 58.65888285 25.6875 59.8125 C24.98302734 60.14636719 24.27855469 60.48023438 23.55273438 60.82421875 C17.32899041 63.63494183 12.06572758 64.2736507 5.5 61.921875 C4.65131348 61.62659912 3.80262695 61.33132324 2.92822266 61.02709961 C2.04440918 60.70878174 1.1605957 60.39046387 0.25 60.0625 C-6.16691765 57.81371663 -12.50577296 55.80026581 -19.125 54.25 C-25.77893894 52.52463509 -30.16699765 50.50166018 -33.82421875 44.5703125 C-36.43957819 38.8662254 -36.72794924 32.44381654 -35.75 26.3125 C-33.12245445 20.25354793 -26.19412963 16.64420239 -20.93945312 13.02099609 C-16.92786985 10.24087063 -13.43729741 7.35011007 -10.1796875 3.6875 C-7.10521267 0.73062803 -4.19066982 0.02001912 0 0 Z " fill="#020202" transform="translate(876.75,227.6875)"/>
<path d="M0 0 C5.34583498 2.9199939 11.14715041 6.31887777 13.32421875 12.26953125 C13.09811142 23.57489767 7.12672498 33.14465676 -0.09765625 41.3359375 C-2.38876331 44.14311076 -4.27862628 47.17582322 -6.18359375 50.25390625 C-7.81553271 52.45830548 -9.35689301 53.81401076 -11.67578125 55.26953125 C-16.3774328 55.86974209 -18.94190037 55.13611551 -22.67578125 52.26953125 C-24.44359966 49.67064905 -25.80202245 46.90479005 -27.17578125 44.08203125 C-27.91224105 42.60781047 -28.65182332 41.13514539 -29.39453125 39.6640625 C-29.7601416 38.93687012 -30.12575195 38.20967773 -30.50244141 37.46044922 C-32.06044106 34.5512755 -33.83966147 31.81386923 -35.67919922 29.07592773 C-37.49940297 25.77664122 -37.43392671 22.82180958 -36.67578125 19.26953125 C-33.95639622 10.63894062 -30.38135737 3.74269458 -23.05078125 -1.66796875 C-15.17117805 -4.14858457 -7.46856147 -3.40354734 0 0 Z " fill="#030303" transform="translate(776.67578125,145.73046875)"/>
<path d="M0 0 C6.54641666 2.95577477 12.03049309 6.95053006 16 13 C17.75267445 18.25802336 17.77111783 22.3652302 15.4375 27.3125 C11.69987678 31.43346919 8.55249213 32.74720848 3.16015625 33.28125 C-4.47943017 33.51246069 -9.904827 32.4571038 -16.5 28.5 C-19.08396827 24.19338622 -18.74000741 19.86474439 -18 15 C-15.15078537 6.41598316 -10.12980018 -1.85713003 0 0 Z " fill="#030303" transform="translate(874,126)"/>
</svg>
